<?xml version="1.0" standalone="no"?><!DOCTYPE svg PUBLIC "-//W3C//DTD SVG 1.1//EN" "http://www.w3.org/Graphics/SVG/1.1/DTD/svg11.dtd"><svg t="1765184622546" class="icon" viewBox="0 0 1024 1024" version="1.1" xmlns="http://www.w3.org/2000/svg" p-id="19365" xmlns:xlink="http://www.w3.org/1999/xlink" width="200" height="200"><path d="M512 874.666667c227.783111 0 398.222222-134.883556 398.222222-362.666667 0-117.987556-48.938667-198.300444-117.333333-256-63.630222-53.688889-142.648889-88.888889-252.444445-88.888889-59.064889 0-102.087111 10.325333-152.888888 28.444445-52.138667 18.588444-88.888889-14.222222-156.444445 21.333333-30.023111 15.800889-0.483556 47.687111-21.333333 85.333333-11.633778 21.006222-35.555556 10.666667-49.777778 46.222222s1.450667 59.761778-7.111111 81.777778c-13.525333 34.801778-42.666667 42.666667-42.666667 92.444445C110.222222 750.449778 284.216889 874.666667 512 874.666667z" fill="#C81366" p-id="19366"></path><path d="M384 803.555556c227.783111 0 398.222222-134.883556 398.222222-362.666667 0-117.987556-45.383111-176.967111-113.777778-234.666667-63.630222-53.688889-124.444444-32-224 0-56.192 18.062222-137.642667 13.880889-188.444444 32-24.888889 67.555556-62.549333 155.761778-71.111111 177.777778-13.525333 34.801778-49.777778 42.666667-49.777778 92.444444 0 179.384889 71.111111 231.111111 112.113778 278.471112 42.382222 11.036444 88.376889 16.64 136.775111 16.64z" fill="#E0308B" p-id="19367"></path><path d="M291.214222 354.972444a14.222222 14.222222 0 0 1 20.024889 1.891556c4.992 6.058667 3.342222 12.743111-1.905778 20.024889C296.718222 394.382222 284.444444 418.005333 284.444444 426.666667a14.222222 14.222222 0 0 1-28.444444 0c0-11.463111 14.549333-54.613333 35.214222-71.694223z m59.875556-52.067555a14.222222 14.222222 0 0 1 10.481778 26.382222l-1.536 0.611556c-3.555556 1.166222-7.096889 2.986667-10.624 5.404444a14.222222 14.222222 0 1 1-16.156445-23.409778c5.688889-3.925333 11.662222-6.954667 17.820445-8.988444z" fill="#FFFFFF" p-id="19368"></path><path d="M426.666667 469.333333c0 105.287111-82.460444 171.761778-112.583111 183.409778 4.152889 29.041778 10.780444 57.116444 20.309333 83.484445C381.44 714.666667 412.188444 687.317333 426.666667 654.222222c0 44.600889-50.488889 87.139556-82.986667 105.045334C354.318222 783.032889 367.644444 805.12 384 824.888889c-35.228444-1.763556-61.070222-13.226667-77.511111-34.360889-9.642667-32.711111-15.957333-64.327111-18.901333-94.833778C266.894222 687.587556 213.333333 643.740444 213.333333 597.333333c11.207111 29.895111 35.413333 54.4 72.576 73.528889-1.891556-51.484444 6.144-99.697778 24.106667-144.64a654.705778 654.705778 0 0 0 0.654222 96.298667C370.204444 585.031111 408.888889 533.959111 426.666667 469.333333z" fill="#FA66B2" p-id="19369"></path><path d="M713.984 526.222222c7.04 111.004444 0.099556 222.008889-63.317333 298.666667 33.180444-9.486222 54.513778-21.333333 64-35.555556a408.974222 408.974222 0 0 0 19.555555-92.871111C752.967111 690.915556 810.666667 645.504 810.666667 597.333333c-11.448889 30.535111-36.451556 55.466667-75.008 74.752 1.379556-47.900444-5.845333-96.526222-21.674667-145.863111z" fill="#E0308B" p-id="19370"></path><path d="M632.263111 203.292444l8.362667 27.192889c-22.755556 6.997333-30.819556 20.280889-26.396445 44.572445l0.568889 2.844444c5.831111 27.264-3.328 41.130667-26.965333 55.751111l-8.476445 5.12c-10.808889 6.826667-12.885333 10.368-11.192888 19.015111l0.355555 1.678223c8.789333 38.072889-15.146667 61.482667-63.928889 69.12l-0.725333 2.503111c-4.835556 17.152-5.191111 22.584889-3.128889 24.632889 1.137778 1.166222 2.417778 2.318222 4.024889 3.669333l9.045333 7.281778c22.428444 18.062222 33.536 38.670222 31.843556 72.021333 9.998222-9.571556 21.333333-15.985778 34.005333-19.157333 15.815111-3.953778 19.911111-8.860444 24.632889-28.16l3.356444-14.08c4.081778-16.782222 6.471111-23.537778 12.515556-35.655111 13.027556-26.026667 26.680889-31.744 53.077333-29.724445l2.986667 0.256c14.108444 1.322667 20.920889 0.796444 29.184-3.697778l1.948444-1.109333c20.536889-12.330667 35.911111-8.263111 58.225778 7.566222l9.912889 7.168c1.635556 1.137778 2.744889 1.863111 3.982222 2.588445l0.753778 0.455111c5.646222 3.242667 7.836444 3.356444 11.235556 0.810667 3.612444-2.702222 6.997333-5.816889 10.666666-9.671112l5.12-5.674666 2.446223-2.744889c2.432-2.744889 4.693333-5.276444 5.603555-6.243556 18.247111-19.399111 36.949333-23.395556 65.720889-9.002666l-12.714667 25.429333c-16.270222-8.120889-21.802667-7.537778-30.762666 1.479111l-3.000889 3.214222c-3.057778 3.413333-9.358222 10.552889-11.790222 13.127111-4.679111 4.935111-9.216 9.088-14.222223 12.842667-13.653333 10.24-27.847111 9.514667-42.496 1.080889l-4.096-2.503111a107.335111 107.335111 0 0 1-3.399111-2.318222l-6.954666-5.063111c-14.606222-10.709333-20.593778-12.928-28.231112-8.931556l-1.379555 0.768c-14.677333 8.817778-26.197333 10.496-44.629333 9.073778l-8.305778-0.711111c-13.937778-0.995556-16.810667 1.024-23.438222 14.250666l-1.905778 3.953778c-3.242667 6.897778-5.091556 12.387556-7.736889 22.954667l-3.313778 13.852444c-7.196444 30.862222-17.208889 44.8-46.08 52.010667-21.831111 5.461333-39.722667 28.629333-52.622222 71.495111 2.602667 3.612444 7.168 7.182222 14.193778 11.733333l9.514666 6.016C584.704 653.511111 597.333333 668.956444 597.333333 696.888889c0 68.295111-42.496 144.540444-96.568889 156.131555l-5.973333-27.818666C533.390222 816.938667 568.888889 753.237333 568.888889 696.888889c0-14.890667-6.115556-23.139556-23.466667-34.56l-10.040889-6.357333c-28.216889-17.820444-38.869333-33.792-29.866666-62.862223 19.342222-62.293333 14.976-83.683556-7.850667-102.883555l-6.912-5.546667a115.228444 115.228444 0 0 1-10.140444-8.846222c-12.600889-12.600889-12.501333-22.784-4.380445-51.569778l3.655111-12.743111c1.208889-4.309333 2.019556-7.566222 2.702222-10.865778 3.399111-16.554667 1.379556-26.382222-8.035555-34.090666-16.483556-13.482667-25.073778-23.537778-29.724445-34.944a67.299556 67.299556 0 0 1-3.868444-13.980445l-1.806222-10.211555a131.029333 131.029333 0 0 0-7.978667-28.544c-8.96-23.310222-31.502222-31.431111-72.817778-23.153778l-5.589333-27.904c53.489778-10.695111 90.211556 2.531556 104.96 40.846222l2.417778 6.542222c3.640889 10.168889 5.248 17.152 7.580444 30.435556l0.725334 4.167111c0.952889 5.560889 1.635556 8.391111 2.730666 11.093333 2.531556 6.200889 8.248889 12.899556 21.376 23.637334 17.024 13.937778 22.158222 31.729778 19.242667 53.859555 23.822222-5.461333 32.128-15.502222 29.383111-30.72l-0.369778-1.820444c-5.888-25.514667 2.816-38.442667 25.671111-52.565334l4.024889-2.417777c15.573333-9.244444 18.986667-13.312 16.853334-25.088l-1.095112-5.546667c-6.926222-38.357333 9.144889-65.607111 45.994667-76.942222z" fill="#AE1159" p-id="19371"></path><path d="M540.444444 167.111111c109.795556 0 188.814222 35.2 252.444445 88.888889C861.283556 313.699556 910.222222 394.012444 910.222222 512c0 227.783111-170.439111 362.666667-398.222222 362.666667S110.222222 750.449778 110.222222 522.666667c0-49.777778 29.141333-57.642667 42.666667-92.444445 8.561778-22.016-7.111111-46.222222 7.111111-81.777778s38.144-25.216 49.777778-46.222222c20.849778-37.646222-8.689778-69.532444 21.333333-85.333333 67.555556-35.555556 104.305778-2.744889 156.444445-21.333333 50.801778-18.119111 93.824-28.444444 152.888888-28.444445z m0 56.888889c-47.445333 0-83.029333 7.04-133.774222 25.144889-21.589333 7.68-41.344 10.069333-64.753778 9.358222l-7.509333-0.312889-11.079111-0.739555-2.204444-0.156445c-20.949333-1.536-32.995556-1.450667-44.828445 1.991111l-1.749333 0.554667 0.042666 0.668444c1.109333 24.846222-1.564444 43.278222-12.828444 65.137778l-2.218667 4.138667a85.504 85.504 0 0 1-24.647111 27.960889c-5.674667 4.124444-10.353778 6.784-16.739555 9.827555l-5.575111 2.588445-0.284445 0.782222c-1.592889 4.465778-1.962667 8.348444-1.422222 16.64l0.469333 5.916444 0.512 6.001778c0.568889 7.068444 0.725333 10.823111 0.625778 16.540445a99.029333 99.029333 0 0 1-6.570667 34.801777c-5.873778 15.104-12.373333 25.784889-22.812444 39.580445l-9.002667 11.662222c-6.286222 8.419556-6.983111 11.249778-6.983111 20.579556 0 183.893333 134.485333 295.111111 344.888889 295.111111 206.08 0 341.333333-118.343111 341.333333-305.777778 0-91.363556-33.265778-158.634667-97.137777-212.522667C696.746667 249.315556 629.162667 224 540.444444 224z" fill="#191919" p-id="19372"></path></svg>